<svg xmlns="http://www.w3.org/2000/svg" width="512" height="512" viewBox="0 0 512 512">
  <defs>
    <style>
      .cls-1{fill:#14161d}.cls-3{fill:none;stroke:#f4ab0b;stroke-miterlimit:10;stroke-width:10px}
    </style>
  </defs>
  <path class="cls-1" d="M0 0h512v512H0z"/>
  <path d="M256 471.643a25.679 25.679 0 0 1-12.821-3.436l-162.84-97.079A25.724 25.724 0 0 1 67.5 348.91V163.09a25.714 25.714 0 0 1 12.821-22.207l162.879-97.1a25.643 25.643 0 0 1 25.624.01l162.839 97.08A25.72 25.72 0 0 1 444.5 163.09v185.82a25.714 25.714 0 0 1-12.821 22.207L268.8 468.218a25.666 25.666 0 0 1-12.8 3.425zM91.643 162.238v187.525L256 447.746l164.357-97.983V162.238L256 64.253z" style="fill:#f4ab0b"/>
  <path class="cls-1" d="M256 41.858a24.138 24.138 0 0 1 12.035 3.213l162.894 97.111A24.211 24.211 0 0 1 443 163.09v185.82a24.227 24.227 0 0 1-12.108 20.929l-162.821 97.069a24.146 24.146 0 0 1-24.106.021L81.071 369.818A24.211 24.211 0 0 1 69 348.91V163.09a24.227 24.227 0 0 1 12.108-20.929l162.821-97.069A24.174 24.174 0 0 1 256 41.858m0 407.635 1.536-.916 162.857-97.09 1.464-.873V161.386l-1.464-.873-162.857-97.09-1.536-.916-1.536.916-162.857 97.09-1.464.873v189.228l1.464.873 162.857 97.09 1.536.916m0-410.635a27.127 27.127 0 0 0-13.571 3.636l-162.858 97.09A27.145 27.145 0 0 0 66 163.09v185.82a27.145 27.145 0 0 0 13.571 23.506l162.858 97.09a27.144 27.144 0 0 0 27.142 0l162.858-97.09A27.145 27.145 0 0 0 446 348.91V163.09a27.145 27.145 0 0 0-13.571-23.506l-162.858-97.09A27.127 27.127 0 0 0 256 38.858zM256 446 93.143 348.91V163.09L256 66l162.857 97.09v185.82L256 446z"/>
  <ellipse class="cls-3" cx="256" cy="256" rx="31.695" ry="96"/>
  <ellipse class="cls-3" cx="256" cy="256" rx="31.898" ry="95.387" transform="rotate(-54.677 255.996 255.999)"/>
  <ellipse class="cls-3" cx="256" cy="256" rx="95.387" ry="31.898" transform="rotate(-35.323 256.002 256)"/>
</svg>
