<svg xmlns="http://www.w3.org/2000/svg" width="448" height="512" viewBox="0 0 448 512">
  <defs>
    <style>
      .b{fill:#41a3fe;stroke-width:0}
    </style>
  </defs>
  <path class="b" d="m238.43 508.13 194.65-116.04a28.954 28.954 0 0 0 14.47-25.02V144.93a28.923 28.923 0 0 0-14.43-24.99L238.39 3.84A28.845 28.845 0 0 0 224 0c-5.07 0-10.04 1.33-14.43 3.87L14.92 119.91A28.954 28.954 0 0 0 .45 144.93v222.14a28.923 28.923 0 0 0 14.43 24.99l194.73 116.09a28.86 28.86 0 0 0 28.82-.03Zm-16.27-21.91L27.47 370.15l-1.75-1.04V142.89l1.75-1.04L222.16 25.78l1.84-1.09 1.84 1.09 194.69 116.07 1.75 1.04v226.22l-1.75 1.04-194.69 116.07-1.84 1.09-1.84-1.1Z"/>
  <path class="b" d="M290.72 256.04c7.2-7.31 13.5-14.61 18.69-21.7 18.94-25.89 16.82-39.94 11.7-47.15-5.12-7.22-17.66-13.88-48.37-4.58-4.29 1.3-8.72 2.85-13.27 4.64-1.18-4.9-2.5-9.57-3.94-13.96-10.11-30.62-22.73-37.05-31.54-37.05-16.43 0-28.4 21.48-35.46 51.01-4.55-1.79-9-3.35-13.3-4.65-30.71-9.29-43.25-2.64-48.37 4.58-5.12 7.22-7.24 21.26 11.7 47.15 5.18 7.09 11.48 14.38 18.66 21.67-7.18 7.3-13.48 14.59-18.66 21.67-18.94 25.89-16.82 39.94-11.7 47.15 4.52 6.37 12.34 9.17 22.3 9.17 11.03 0 24.67-3.44 39.33-9.25 1.19 4.91 2.5 9.59 3.95 13.98 10.11 30.62 22.73 37.05 31.54 37.05 16.44 0 28.4-21.48 35.46-51.01 4.55 1.79 9 3.35 13.29 4.65 10.77 3.26 19.3 4.55 26.06 4.55 12.53 0 18.98-4.45 22.3-9.14 11.01-15.53-4.54-42.57-30.4-68.78Zm-15.07-63.87c9.04-2.74 16.95-4.1 23.22-4.1 6.87 0 11.79 1.64 14.09 4.89 4.42 6.23.07 19.49-11.62 35.47-4.92 6.73-10.91 13.67-17.77 20.63a311.318 311.318 0 0 0-17.38-15.16c-.82-12.98-2.36-25.36-4.57-36.74 4.82-1.94 9.51-3.62 14.02-4.98Zm-32.49 90.87c-6.36 4.51-12.77 8.72-19.15 12.61-6.38-3.89-12.8-8.11-19.16-12.62a331.15 331.15 0 0 1-13.31-9.93c-.28-5.61-.42-11.32-.42-17.1s.14-11.5.42-17.1c4.29-3.37 8.73-6.68 13.31-9.93 6.37-4.51 12.78-8.73 19.16-12.62 6.38 3.89 12.79 8.1 19.15 12.61 4.58 3.24 9.02 6.56 13.31 9.93.28 5.61.42 11.32.42 17.11s-.14 11.5-.42 17.11a340.99 340.99 0 0 1-13.31 9.93m12.36 3.36c-.78 8.51-1.88 16.69-3.3 24.39-6.04-2.78-12.22-5.93-18.48-9.44 5.15-3.24 10.24-6.64 15.2-10.15 2.23-1.58 4.42-3.18 6.59-4.8Zm-41.27 14.95c-6.26 3.5-12.44 6.66-18.47 9.44-1.42-7.7-2.52-15.88-3.3-24.4 2.17 1.61 4.36 3.22 6.59 4.8a346.62 346.62 0 0 0 15.19 10.17Zm-33.02-36.71c-3.35-2.87-6.58-5.75-9.67-8.64 3.08-2.89 6.32-5.78 9.67-8.64-.07 2.88-.11 5.77-.11 8.64s.05 5.78.12 8.64Zm11.24-39.03c.78-8.52 1.89-16.69 3.3-24.4 6.03 2.77 12.21 5.93 18.47 9.44-5.07 3.21-10.15 6.6-15.18 10.17-2.23 1.58-4.42 3.18-6.59 4.8Zm41.29-14.97c6.25-3.5 12.43-6.66 18.46-9.43 1.42 7.7 2.52 15.87 3.3 24.38-2.18-1.63-4.38-3.22-6.59-4.79-5.04-3.57-10.11-6.96-15.17-10.16m33.01 36.71c3.35 2.87 6.59 5.75 9.68 8.65-3.09 2.89-6.32 5.78-9.67 8.65.07-2.89.11-5.77.11-8.64s-.05-5.78-.12-8.65Zm-64.81-70.93c6.24-18.9 14.48-30.18 22.04-30.18s15.81 11.28 22.04 30.18c1.52 4.6 2.88 9.55 4.09 14.76-8.49 3.81-17.27 8.36-26.13 13.53-8.87-5.18-17.65-9.73-26.14-13.54 1.21-5.21 2.57-10.16 4.09-14.76Zm-55.3 52c-11.69-15.98-16.03-29.24-11.62-35.47 2.31-3.26 7.22-4.89 14.09-4.89 6.27 0 14.18 1.36 23.22 4.1 4.52 1.37 9.23 3.05 14.06 5-2.22 11.55-3.75 24.01-4.58 36.69-6.17 4.98-12.01 10.06-17.44 15.17-6.84-6.95-12.82-13.88-17.74-20.59Zm25.69 91.42c-18.95 5.73-32.9 5.44-37.31-.79-4.42-6.23-.07-19.49 11.62-35.47 4.91-6.72 10.89-13.64 17.74-20.59 5.42 5.1 11.25 10.17 17.41 15.14.82 12.97 2.36 25.35 4.56 36.73-4.82 1.94-9.51 3.62-14.02 4.98m73.69 15.74c-6.24 18.9-14.48 30.18-22.04 30.18s-15.81-11.28-22.04-30.18c-1.52-4.61-2.89-9.58-4.1-14.8 8.58-3.87 17.38-8.43 26.11-13.51 8.88 5.19 17.67 9.74 26.17 13.56-1.21 5.21-2.58 10.16-4.09 14.76Zm66.92-16.54c-4.42 6.23-18.36 6.53-37.31.79-4.52-1.37-9.23-3.05-14.06-5 2.22-11.55 3.75-24 4.58-36.68 6.17-4.98 12.02-10.06 17.45-15.17 6.84 6.95 12.82 13.87 17.73 20.59 11.69 15.98 16.03 29.24 11.62 35.47Z"/>
</svg>
